<?xml version="1.0" standalone="no"?>
<!DOCTYPE svg PUBLIC "-//W3C//DTD SVG 20010904//EN"
 "http://www.w3.org/TR/2001/REC-SVG-20010904/DTD/svg10.dtd">
<svg version="1.0" xmlns="http://www.w3.org/2000/svg"
 width="1080.000000pt" height="262.000000pt" viewBox="0 0 1080.000000 262.000000"
 preserveAspectRatio="xMidYMid meet">

<g transform="translate(0.000000,262.000000) scale(0.100000,-0.100000)"
fill="#000000" stroke="none">
<path d="M1591 1991 c-64 -26 -115 -73 -145 -133 l-26 -52 0 -483 c0 -405 2
-489 15 -519 61 -145 228 -209 368 -140 63 30 100 69 131 136 20 44 21 59 21
520 l0 475 -24 53 c-59 130 -213 195 -340 143z"/>
<path d="M2921 1991 c-64 -26 -115 -73 -145 -133 l-26 -52 0 -477 c0 -396 3
-484 15 -519 52 -148 225 -217 368 -146 63 30 100 69 131 136 20 44 21 59 21
520 l0 475 -24 53 c-59 130 -213 195 -340 143z"/>
<path d="M5383 1678 c-51 -25 -52 -107 -2 -133 39 -21 64 -19 95 8 72 62 -7
167 -93 125z"/>
<path d="M4750 1270 l0 -390 250 0 250 0 0 65 0 65 -170 0 -170 0 0 325 0 325
-80 0 -80 0 0 -390z"/>
<path d="M6270 1270 l0 -390 75 0 75 0 0 94 c0 76 3 98 18 116 10 13 24 20 30
16 6 -4 45 -56 87 -116 l76 -110 89 0 90 0 -109 154 c-59 84 -111 158 -115
165 -5 7 37 62 104 136 l112 125 -89 0 c-86 0 -90 -1 -110 -28 -34 -47 -165
-197 -174 -200 -5 -2 -9 93 -9 212 l0 216 -75 0 -75 0 0 -390z"/>
<path d="M7100 1270 l0 -391 209 3 208 3 69 35 c78 40 132 102 161 185 28 78
25 272 -5 346 -32 79 -81 132 -160 171 l-66 33 -208 3 -208 3 0 -391z m411
225 c24 -17 53 -50 66 -75 48 -93 39 -251 -17 -329 -44 -61 -79 -74 -197 -79
l-103 -4 0 262 0 262 104 -4 c97 -3 108 -6 147 -33z"/>
<path d="M3585 1574 c-58 -20 -106 -64 -139 -124 -61 -112 -40 -239 56 -325
136 -122 334 -85 421 79 32 61 31 174 -3 240 -61 119 -206 176 -335 130z"/>
<path d="M8530 1525 l0 -65 -45 0 -45 0 0 -54 0 -55 43 -3 42 -3 5 -195 c4
-145 9 -200 19 -216 25 -37 75 -54 161 -54 l80 0 0 55 0 55 -35 0 c-22 0 -43
8 -55 20 -19 19 -20 31 -18 178 l3 157 53 3 52 3 0 55 0 54 -55 0 -55 0 0 65
0 65 -75 0 -75 0 0 -65z"/>
<path d="M5875 1456 c-23 -9 -56 -34 -77 -58 l-38 -43 0 53 0 52 -75 0 -75 0
0 -290 0 -290 80 0 80 0 0 185 c0 199 6 227 52 259 26 19 87 21 122 5 48 -22
56 -60 56 -263 l0 -186 76 0 75 0 -3 233 c-3 221 -4 234 -26 269 -45 73 -158
106 -247 74z"/>
<path d="M8020 1454 c-61 -22 -104 -56 -124 -97 -28 -61 -24 -67 50 -67 60 0
67 2 90 30 65 77 203 28 192 -68 -3 -27 -3 -27 -111 -34 -114 -7 -176 -24
-215 -61 -59 -54 -69 -137 -26 -204 35 -53 72 -74 143 -80 72 -7 121 8 168 53
19 19 37 34 39 34 2 0 4 -18 4 -40 l0 -40 76 0 76 0 -4 223 c-2 183 -6 227
-20 252 -20 37 -53 67 -98 91 -49 25 -181 29 -240 8z m207 -366 c-9 -65 -60
-108 -127 -108 -41 0 -56 5 -75 25 -27 26 -31 46 -14 76 17 32 67 48 148 49
l74 0 -6 -42z"/>
<path d="M9022 1452 c-74 -27 -114 -68 -136 -139 -7 -22 -5 -23 62 -23 63 0
71 2 85 24 9 13 32 30 52 36 79 26 149 -18 143 -89 l-3 -36 -109 -7 c-191 -13
-260 -63 -254 -185 5 -75 25 -108 88 -140 83 -43 185 -27 250 40 l30 31 0 -42
0 -42 76 0 75 0 -3 233 -3 234 -27 35 c-59 78 -212 110 -326 70z m208 -351 c0
-71 -51 -121 -123 -121 -64 0 -97 24 -97 73 0 52 45 74 153 76 l67 1 0 -29z"/>
<path d="M5350 1170 l0 -290 75 0 75 0 0 290 0 290 -75 0 -75 0 0 -290z"/>
<path d="M2257 1156 c-199 -71 -236 -339 -65 -470 51 -38 142 -59 206 -46 65
12 83 22 138 72 135 124 100 349 -68 432 -59 30 -147 35 -211 12z"/>
</g>
</svg>
